<mxfile host="app.diagrams.net" modified="2021-05-11T04:15:25.531Z" agent="5.0 (X11)" etag="fakTm9Yan9FQ_dF0VL1L" version="14.6.11" type="github">
  <diagram id="C5RBs43oDa-KdzZeNtuy" name="Page-1">
    <mxGraphModel dx="1240" dy="1231" grid="1" gridSize="10" guides="1" tooltips="1" connect="1" arrows="1" fold="1" page="1" pageScale="1" pageWidth="2000" pageHeight="2000" math="0" shadow="0">
      <root>
        <mxCell id="WIyWlLk6GJQsqaUBKTNV-0" />
        <mxCell id="WIyWlLk6GJQsqaUBKTNV-1" parent="WIyWlLk6GJQsqaUBKTNV-0" />
        <mxCell id="OGA9XF_m5Bx5fPg7dGQ3-6" value="Vertical Container" style="swimlane;" parent="WIyWlLk6GJQsqaUBKTNV-1" vertex="1">
          <mxGeometry x="900" y="200" width="200" height="221" as="geometry" />
        </mxCell>
        <mxCell id="OGA9XF_m5Bx5fPg7dGQ3-18" value="" style="shape=crossbar;whiteSpace=wrap;html=1;rounded=1;" parent="OGA9XF_m5Bx5fPg7dGQ3-6" vertex="1">
          <mxGeometry y="90" width="200" height="20" as="geometry" />
        </mxCell>
        <mxCell id="OGA9XF_m5Bx5fPg7dGQ3-20" value="" style="line;strokeWidth=2;html=1;" parent="OGA9XF_m5Bx5fPg7dGQ3-6" vertex="1">
          <mxGeometry y="149" width="200" height="10" as="geometry" />
        </mxCell>
        <mxCell id="OGA9XF_m5Bx5fPg7dGQ3-21" value="" style="line;strokeWidth=2;direction=south;html=1;" parent="OGA9XF_m5Bx5fPg7dGQ3-6" vertex="1">
          <mxGeometry x="95" y="99" width="10" height="51" as="geometry" />
        </mxCell>
        <object label="List Item" placeholders="1" ChooseOrRejectList="{  }" id="OGA9XF_m5Bx5fPg7dGQ3-24">
          <mxCell style="text;strokeColor=none;fillColor=none;align=left;verticalAlign=top;spacingLeft=4;spacingRight=4;overflow=hidden;rotatable=0;points=[[0,0.5],[1,0.5]];portConstraint=eastwest;" parent="OGA9XF_m5Bx5fPg7dGQ3-6" vertex="1">
            <mxGeometry y="49" width="200" height="51" as="geometry" />
          </mxCell>
        </object>
        <object label="Title" placeholders="1" nodeNumber="" id="OGA9XF_m5Bx5fPg7dGQ3-25">
          <mxCell style="text;align=center;fontStyle=1;verticalAlign=middle;spacingLeft=3;spacingRight=3;strokeColor=none;rotatable=0;points=[[0,0.5],[1,0.5]];portConstraint=eastwest;" parent="OGA9XF_m5Bx5fPg7dGQ3-6" vertex="1">
            <mxGeometry x="120" y="23" width="80" height="26" as="geometry" />
          </mxCell>
        </object>
        <object label="item: attribute" placeholders="1" weight="" id="OGA9XF_m5Bx5fPg7dGQ3-27">
          <mxCell style="label;fontStyle=0;strokeColor=none;fillColor=none;align=left;verticalAlign=top;overflow=hidden;spacingLeft=28;spacingRight=4;rotatable=0;points=[[0,0.5],[1,0.5]];portConstraint=eastwest;imageWidth=16;imageHeight=16;image=img/clipart/Gear_128x128.png" parent="OGA9XF_m5Bx5fPg7dGQ3-6" vertex="1">
            <mxGeometry x="100" y="100" width="100" height="50" as="geometry" />
          </mxCell>
        </object>
        <object label="item: attribute" placeholders="1" profitAchieved="" id="OGA9XF_m5Bx5fPg7dGQ3-28">
          <mxCell style="label;fontStyle=0;strokeColor=none;fillColor=none;align=left;verticalAlign=top;overflow=hidden;spacingLeft=28;spacingRight=4;rotatable=0;points=[[0,0.5],[1,0.5]];portConstraint=eastwest;imageWidth=16;imageHeight=16;image=img/clipart/Gear_128x128.png" parent="OGA9XF_m5Bx5fPg7dGQ3-6" vertex="1">
            <mxGeometry y="160" width="200" height="61" as="geometry" />
          </mxCell>
        </object>
        <object label="item: attribute" placeholders="1" profitPerWeight="" id="OGA9XF_m5Bx5fPg7dGQ3-26">
          <mxCell style="label;fontStyle=0;strokeColor=none;fillColor=none;align=left;verticalAlign=top;overflow=hidden;spacingLeft=28;spacingRight=4;rotatable=0;points=[[0,0.5],[1,0.5]];portConstraint=eastwest;imageWidth=16;imageHeight=16;image=img/clipart/Gear_128x128.png" parent="WIyWlLk6GJQsqaUBKTNV-1" vertex="1">
            <mxGeometry x="900" y="300" width="105" height="50" as="geometry" />
          </mxCell>
        </object>
      </root>
    </mxGraphModel>
  </diagram>
</mxfile>
